<?xml version="1.0" encoding="UTF-8"?>
<svg id="a" data-name="Lager 1" xmlns="http://www.w3.org/2000/svg" viewBox="0 0 99.61 99.61">
  <defs>
    <style>
      .b {
        fill: #edf2f4;
        stroke-width: 0px;
      }
    </style>
  </defs>
  <polygon class="b" points="71.4 21.94 55.73 37.62 40.05 21.94 49.46 12.54 58.86 21.94 65.13 15.67 49.46 0 27.52 21.94 55.73 50.15 71.4 34.48 87.07 50.15 77.67 59.56 68.27 50.15 62 56.42 77.67 72.1 99.61 50.15 71.4 21.94"/>
  <polygon class="b" points="72.1 77.67 56.42 62 50.15 68.27 59.56 77.67 50.15 87.07 12.54 49.46 21.94 40.05 31.35 49.46 37.62 43.19 21.94 27.52 0 49.46 50.15 99.61 72.1 77.67"/>
</svg>