<?xml version="1.0" encoding="UTF-8"?>
<svg id="a" xmlns="http://www.w3.org/2000/svg" viewBox="0 0 1920 150">
  <defs>
    <style>
      .b, .c {
        fill: hsl(50, 21%, 95%);
        stroke-width: 0px;
      }

      .c {
        fill-rule: evenodd;
      }
    </style>
  </defs>
  <path class="b" d="M1907.2,2.86c34.5,0,61.9,25.1,62.2,56.5,0,30.2-27.4,55.3-61.9,55.3-24.2,0-45.6-13.6-55.1-33.2-19.1,18.4-46.3,30.6-76.6,30.6-20.8,0-40.1-6.1-56.3-15.4-9.3,26.1-40.8,46-78.3,46-35.3,0-65.3-17.8-76.4-41.5-19-.2-36.3-5.6-49.4-14.3-14.3,12.4-35.1,21-58.4,21-30.2,0-56.3-13.9-69.2-33.1-11.7,8.6-26.2,13.7-42,13.7-11.1,0-21.5-2.5-30.8-6.9-23.4,18.8-57.6,31.5-97.4,31.5s-75.4-13.2-98.8-32.6c-12.1,9.9-27.1,16.5-44.2,16.5-18.3,0-35.5-8.7-48.3-21.6-9.1,3-19,4.7-29.5,4.7-8.2,0-16.2-1-23.6-2.9-17.1,20.9-39.6,34.3-65,34.3-23.9,0-46.4-13.4-63.5-34.3-12.4,5.7-26.6,8.9-40.6,8.9s-27.4-3-39.5-8.4c-19.2,19.3-45.9,32.1-75.5,32.1-17.7,0-34.5-5.1-49.2-12.8-15,29.9-43.8,50.2-76.8,50.2-30.2,0-56.9-16.9-72.7-42.9-21.4,8.9-46.2,13.9-72.5,13.9-42.3,0-80.4-13-107.4-33.8-10.3,13.9-25.9,23.5-43.3,23.5-16,0-30.4-8.3-40.6-20.2-17.4,32.3-50.9,55-89.7,55s-72.6-22.8-89.9-55.3c-11.4,12.6-28.5,21.4-47.6,21.4-34.5,0-62.4-26.8-62.4-58.9S-35.1-7.54-.6-7.54c15.3,0,29.3,4.4,40.2,12.9,13.3-41.9,51.8-72.2,97.3-72.2,42.4,0,78.8,26.3,94.3,63.8,9.7-9.1,22.3-13.8,36-13.8,2.3,0,4.7-.6,7-.3,16.2-47.1,74.3-81.2,143.6-81.2,54,0,101.3,20.5,127.2,52.2,5.8-1.4,11.8-1.3,17.9-1.3,10.7,0,21,1.4,30.5,5.3,17.2-35.2,53.5-59.5,95.6-59.5,15.3,0,29.8,3.2,42.9,9,18.3-19.6,43.8-31.1,72.1-31.1,13.1,0,25.6,1.8,37.1,6.6,17.5-23.5,41.4-38,67-38,49.2,0,90.6,50.5,96.7,115.8,7.5.6,14.7,2.1,21.4,4.3,12.8-12.9,30.1-20,48.3-20,20,0,37.4,7.4,50.2,20.5,23.2-16.7,57.8-26.4,92.7-26.4s66.5,8.8,89.5,24.2c11.1-7.2,24.4-10.6,38.7-10.6,31.1,0,57.5,19.1,66.6,46.5,12.6-6.8,28-10,44.6-10,21.8,0,41.5,6.1,55.6,17.2,13.6-10.1,32.4-15.5,53.1-15.5,29,0,54.2,11.4,66.7,29.3,2.9-.2,5.8.4,8.8.4,10.7,0,20.9.8,30.3,3.7-.2-1.9-1-3.8-1-5.7,0-51.3,47.5-92.9,105.2-92.9,54.2,0,98.7,36.7,103.9,83.7,8.6-4.2,18.3-6.5,27.8-6.5h0Z"/>
  <ellipse class="c" cx="1638.74" cy="-6.38" rx="81" ry="47"/>
  <ellipse class="c" cx="1535.24" cy="-12.88" rx="70.5" ry="40.5"/>
  <ellipse class="c" cx="47.24" cy="-17.38" rx="63.5" ry="45"/>
  <ellipse class="c" cx="1423.24" cy="-8.38" rx="27.5" ry="21"/>
  <ellipse class="c" cx="1875.74" cy="-36.88" rx="74" ry="91.5"/>
  <circle class="c" cx="1919.74" cy="18.07" r="104.89"/>
  <circle class="c" cx="-.26" cy="18.07" r="104.89"/>
</svg>