<?xml version="1.0" encoding="UTF-8"?>
<svg id="a" xmlns="http://www.w3.org/2000/svg" viewBox="0 0 1920 150">
  <defs>
    <style>
      .b, .c {
        fill: hsl(50, 21%, 95%);
        stroke-width: 0px;
      }

      .c {
        fill-rule: evenodd;
      }
    </style>
  </defs>
  <path class="b" d="M1907.2,144.7c-9.5,0-19.2-2.3-27.8-6.5-5.2,47-49.7,83.7-103.9,83.7-57.7,0-105.2-41.6-105.2-92.9,0-1.9.8-3.8,1-5.7-9.4,2.9-19.6,3.7-30.3,3.7-3,0-5.9.6-8.8.4-12.5,17.9-37.7,29.3-66.7,29.3-20.7,0-39.5-5.4-53.1-15.5-14.1,11.1-33.8,17.2-55.6,17.2-16.6,0-32-3.2-44.6-10-9.1,27.4-35.5,46.5-66.6,46.5-14.3,0-27.6-3.4-38.7-10.6-23,15.4-54.6,24.2-89.5,24.2s-69.5-9.7-92.7-26.4c-12.8,13.1-30.2,20.5-50.2,20.5-18.2,0-35.5-7.1-48.3-20-6.7,2.2-13.9,3.7-21.4,4.3-6.1,65.3-47.5,115.8-96.7,115.8-25.6,0-49.5-14.5-67-38-11.5,4.8-24,6.6-37.1,6.6-28.3,0-53.8-11.5-72.1-31.1-13.1,5.8-27.6,9-42.9,9-42.1,0-78.4-24.3-95.6-59.5-9.5,3.9-19.8,5.3-30.5,5.3-6.1,0-12.1.1-17.9-1.3-25.9,31.7-73.2,52.2-127.2,52.2-69.3,0-127.4-34.1-143.6-81.2-2.3.3-4.7-.3-7-.3-13.7,0-26.3-4.7-36-13.8-15.5,37.5-51.9,63.8-94.3,63.8-45.5,0-84-30.3-97.3-72.2-10.9,8.5-24.9,12.9-40.2,12.9-34.5,0-62.4-25.3-62.4-57.4S-35.1,38.8-.6,38.8c19.1,0,36.2,8.8,47.6,21.4C64.3,27.7,98.1,4.9,136.9,4.9s72.3,22.7,89.7,55c10.2-11.9,24.6-20.2,40.6-20.2,17.4,0,33,9.6,43.3,23.5,27-20.8,65.1-33.8,107.4-33.8,26.3,0,51.1,5,72.5,13.9C506.2,17.3,532.9.4,563.1.4c33,0,61.8,20.3,76.8,50.2,14.7-7.7,31.5-12.8,49.2-12.8,29.6,0,56.3,12.8,75.5,32.1,12.1-5.4,25.5-8.4,39.5-8.4s28.2,3.2,40.6,8.9c17.1-20.9,39.6-34.3,63.5-34.3,25.4,0,47.9,13.4,65,34.3,7.4-1.9,15.4-2.9,23.6-2.9,10.5,0,20.4,1.7,29.5,4.7,12.8-12.9,30-21.6,48.3-21.6,17.1,0,32.1,6.6,44.2,16.5,23.4-19.4,59-32.6,98.8-32.6s74,12.7,97.4,31.5c9.3-4.4,19.7-6.9,30.8-6.9,15.8,0,30.3,5.1,42,13.7,12.9-19.2,39-33.1,69.2-33.1,23.3,0,44.1,8.6,58.4,21,13.1-8.7,30.4-14.1,49.4-14.3,11.1-23.7,41.1-41.5,76.4-41.5,37.5,0,69,19.9,78.3,46,16.2-9.3,35.5-15.4,56.3-15.4,30.3,0,57.5,12.2,76.6,30.6,9.5-19.6,30.9-33.2,55.1-33.2,34.5,0,61.9,25.1,61.9,55.3-.3,31.4-27.7,56.5-62.2,56.5h0Z"/>
  <ellipse class="c" cx="1638.74" cy="153.95" rx="81" ry="47"/>
  <ellipse class="c" cx="1535.24" cy="160.45" rx="70.5" ry="40.5"/>
  <ellipse class="c" cx="47.24" cy="164.95" rx="63.5" ry="45"/>
  <ellipse class="c" cx="1423.24" cy="155.95" rx="27.5" ry="21"/>
  <ellipse class="c" cx="1875.74" cy="184.45" rx="74" ry="91.5"/>
  <circle class="c" cx="1919.74" cy="129.5" r="104.89"/>
  <circle class="c" cx="-.26" cy="129.5" r="104.89"/>
</svg>